<?xml version="1.0" encoding="UTF-8"?>
<svg xmlns="http://www.w3.org/2000/svg" xmlns:xlink="http://www.w3.org/1999/xlink" width="103px" height="20px" viewBox="0 0 102 20" version="1.1">
<defs>
<clipPath id="clip1">
  <path d="M 29 4 L 102 4 L 102 18 L 29 18 Z M 29 4 "/>
</clipPath>
<clipPath id="clip2">
  <path d="M 32.8125 7.316406 L 32.8125 9.277344 L 33.566406 9.277344 C 34.425781 9.277344 34.855469 8.9375 34.855469 8.253906 C 34.855469 7.914062 34.738281 7.671875 34.507812 7.53125 C 34.277344 7.390625 33.910156 7.316406 33.40625 7.316406 Z M 34.773438 12.648438 C 35.050781 12.492188 35.1875 12.195312 35.1875 11.765625 C 35.1875 10.988281 34.695312 10.601562 33.703125 10.601562 L 32.8125 10.601562 L 32.8125 12.886719 L 33.554688 12.886719 C 34.089844 12.886719 34.496094 12.808594 34.773438 12.648438 Z M 36.742188 10.492188 C 37.101562 10.800781 37.28125 11.261719 37.28125 11.875 C 37.28125 12.777344 36.953125 13.410156 36.296875 13.777344 C 35.640625 14.148438 34.722656 14.332031 33.542969 14.332031 L 29.714844 14.332031 L 29.714844 13.972656 C 29.714844 13.394531 30.191406 12.925781 30.78125 12.925781 L 30.78125 7.710938 L 32.203125 7.320312 L 30.78125 7.320312 L 30.78125 7.316406 C 30.191406 7.316406 29.714844 6.851562 29.714844 6.273438 L 29.714844 5.910156 L 33.210938 5.910156 C 34.414062 5.910156 35.335938 6.078125 35.96875 6.414062 C 36.605469 6.75 36.921875 7.296875 36.921875 8.058594 C 36.921875 8.554688 36.773438 8.953125 36.46875 9.257812 C 36.167969 9.5625 35.796875 9.765625 35.351562 9.871094 C 35.917969 9.976562 36.382812 10.183594 36.742188 10.492188 Z M 41.042969 8.8125 C 40.652344 8.8125 40.347656 8.921875 40.128906 9.140625 C 39.980469 9.289062 39.863281 9.480469 39.785156 9.71875 C 39.722656 9.894531 39.851562 10.078125 40.042969 10.078125 L 42.238281 10.078125 C 42.238281 9.921875 42.21875 9.765625 42.175781 9.613281 C 42.132812 9.464844 42.066406 9.328125 41.972656 9.210938 C 41.878906 9.09375 41.753906 8.996094 41.601562 8.921875 C 41.449219 8.851562 41.261719 8.8125 41.042969 8.8125 Z M 43.691406 12.773438 L 44.027344 13.183594 C 43.816406 13.421875 43.589844 13.613281 43.347656 13.761719 C 43.101562 13.910156 42.855469 14.027344 42.597656 14.109375 C 42.339844 14.195312 42.085938 14.25 41.828125 14.285156 C 41.570312 14.316406 41.328125 14.332031 41.09375 14.332031 C 41.0625 14.332031 41.035156 14.332031 41.003906 14.332031 C 40.558594 14.324219 40.144531 14.246094 39.75 14.101562 C 39.332031 13.949219 38.964844 13.722656 38.652344 13.421875 C 38.339844 13.121094 38.089844 12.746094 37.910156 12.300781 C 37.726562 11.851562 37.636719 11.332031 37.636719 10.738281 C 37.636719 10.289062 37.714844 9.867188 37.871094 9.464844 C 38.027344 9.066406 38.25 8.714844 38.539062 8.414062 C 38.832031 8.113281 39.183594 7.875 39.597656 7.699219 C 40.011719 7.519531 40.480469 7.433594 41.003906 7.433594 C 41.453125 7.433594 41.867188 7.503906 42.242188 7.640625 C 42.617188 7.777344 42.9375 7.976562 43.207031 8.242188 C 43.476562 8.503906 43.6875 8.824219 43.839844 9.203125 C 43.988281 9.585938 44.066406 10.015625 44.066406 10.5 C 44.066406 10.648438 44.058594 10.773438 44.046875 10.867188 C 44.03125 10.960938 44.007812 11.035156 43.972656 11.09375 C 43.9375 11.148438 43.890625 11.1875 43.832031 11.207031 C 43.773438 11.230469 43.699219 11.242188 43.605469 11.242188 L 40.050781 11.242188 C 39.875 11.242188 39.757812 11.398438 39.777344 11.566406 C 39.828125 11.976562 39.972656 12.257812 40.195312 12.457031 C 40.40625 12.644531 40.660156 12.765625 40.960938 12.8125 C 41.0625 12.828125 41.167969 12.835938 41.277344 12.835938 C 41.515625 12.835938 41.71875 12.808594 41.890625 12.75 C 42.0625 12.695312 42.214844 12.632812 42.347656 12.5625 C 42.382812 12.546875 42.417969 12.527344 42.453125 12.507812 L 42.453125 12.511719 C 42.589844 12.445312 42.742188 12.40625 42.902344 12.40625 C 43.222656 12.40625 43.503906 12.550781 43.691406 12.773438 Z M 48.953125 13.265625 L 49.265625 13.75 C 49.003906 13.945312 48.707031 14.089844 48.378906 14.1875 C 48.050781 14.285156 47.710938 14.332031 47.359375 14.332031 C 47.035156 14.332031 46.75 14.285156 46.503906 14.195312 C 46.253906 14.101562 46.046875 13.96875 45.878906 13.800781 C 45.710938 13.628906 45.582031 13.425781 45.492188 13.183594 C 45.40625 12.941406 45.363281 12.671875 45.363281 12.375 L 45.363281 8.917969 L 44.785156 8.917969 C 44.679688 8.917969 44.589844 8.882812 44.515625 8.816406 C 44.441406 8.75 44.402344 8.652344 44.402344 8.523438 L 44.402344 8.011719 C 44.402344 7.855469 44.515625 7.722656 44.667969 7.691406 L 45.285156 7.574219 C 45.410156 7.550781 45.507812 7.457031 45.535156 7.335938 L 45.886719 5.902344 C 45.941406 5.699219 46.089844 5.59375 46.335938 5.59375 L 47.398438 5.59375 L 47.398438 7.550781 L 49.054688 7.550781 L 49.054688 8.550781 C 49.054688 8.753906 48.890625 8.917969 48.683594 8.917969 L 47.398438 8.917969 L 47.398438 12.242188 C 47.398438 12.394531 47.4375 12.523438 47.515625 12.625 C 47.589844 12.726562 47.703125 12.777344 47.847656 12.777344 C 47.890625 12.777344 47.929688 12.773438 47.964844 12.769531 L 48.066406 12.765625 C 48.445312 12.765625 48.777344 12.96875 48.953125 13.265625 Z M 53.929688 13.265625 L 54.242188 13.75 C 53.980469 13.945312 53.683594 14.089844 53.355469 14.1875 C 53.027344 14.285156 52.6875 14.332031 52.335938 14.332031 C 52.011719 14.332031 51.726562 14.285156 51.480469 14.195312 C 51.230469 14.101562 51.023438 13.96875 50.855469 13.800781 C 50.6875 13.628906 50.558594 13.425781 50.472656 13.183594 C 50.382812 12.941406 50.339844 12.671875 50.339844 12.375 L 50.339844 8.917969 L 49.761719 8.917969 C 49.65625 8.917969 49.566406 8.882812 49.492188 8.816406 C 49.417969 8.75 49.378906 8.652344 49.378906 8.523438 L 49.378906 8.011719 C 49.378906 7.855469 49.492188 7.722656 49.644531 7.691406 L 50.261719 7.574219 C 50.386719 7.550781 50.484375 7.457031 50.515625 7.335938 L 50.863281 5.902344 C 50.917969 5.699219 51.066406 5.59375 51.3125 5.59375 L 52.375 5.59375 L 52.375 7.550781 L 54.035156 7.550781 L 54.035156 8.550781 C 54.035156 8.753906 53.867188 8.917969 53.660156 8.917969 L 52.375 8.917969 L 52.375 12.242188 C 52.375 12.394531 52.414062 12.523438 52.492188 12.625 C 52.570312 12.726562 52.679688 12.777344 52.824219 12.777344 C 52.867188 12.777344 52.90625 12.773438 52.941406 12.769531 L 53.042969 12.765625 C 53.421875 12.765625 53.753906 12.96875 53.929688 13.265625 Z M 58.285156 16.742188 C 57.910156 17.972656 56.371094 17.5625 55.972656 17.46875 C 55.765625 17.414062 55.566406 17.355469 55.375 17.292969 L 55.339844 15.386719 C 55.472656 15.4375 55.601562 15.488281 55.734375 15.519531 C 55.890625 15.558594 56.03125 15.578125 56.152344 15.578125 C 56.320312 15.578125 56.453125 15.53125 56.546875 15.441406 C 56.605469 15.390625 56.664062 15.253906 56.6875 15.136719 C 56.707031 15.046875 56.703125 14.9375 56.671875 14.851562 L 54.355469 7.5625 L 56.101562 7.5625 C 56.359375 7.5625 56.585938 7.726562 56.664062 7.96875 L 57.816406 11.964844 L 58.976562 7.96875 C 59.050781 7.726562 59.277344 7.5625 59.535156 7.5625 L 61.269531 7.5625 Z M 68.917969 7.316406 L 68.917969 9.277344 L 69.671875 9.277344 C 70.53125 9.277344 70.960938 8.9375 70.960938 8.253906 C 70.960938 7.914062 70.84375 7.671875 70.613281 7.53125 C 70.382812 7.390625 70.015625 7.316406 69.511719 7.316406 Z M 70.878906 12.648438 C 71.15625 12.492188 71.292969 12.195312 71.292969 11.765625 C 71.292969 10.988281 70.800781 10.601562 69.808594 10.601562 L 68.917969 10.601562 L 68.917969 12.886719 L 69.660156 12.886719 C 70.195312 12.886719 70.601562 12.808594 70.878906 12.648438 Z M 72.847656 10.492188 C 73.207031 10.800781 73.386719 11.261719 73.386719 11.875 C 73.386719 12.777344 73.058594 13.410156 72.402344 13.777344 C 71.746094 14.148438 70.828125 14.332031 69.648438 14.332031 L 65.820312 14.332031 L 65.820312 13.972656 C 65.820312 13.394531 66.296875 12.925781 66.886719 12.925781 L 66.886719 7.710938 L 68.308594 7.320312 L 66.886719 7.320312 L 66.886719 7.316406 C 66.296875 7.316406 65.820312 6.851562 65.820312 6.273438 L 65.820312 5.910156 L 69.3125 5.910156 C 70.515625 5.910156 71.4375 6.078125 72.074219 6.414062 C 72.710938 6.75 73.027344 7.296875 73.027344 8.058594 C 73.027344 8.554688 72.875 8.953125 72.574219 9.257812 C 72.273438 9.5625 71.898438 9.765625 71.453125 9.871094 C 72.023438 9.976562 72.488281 10.183594 72.847656 10.492188 Z M 76.121094 4.929688 L 76.121094 14.332031 L 74.050781 14.332031 L 74.050781 5.960938 C 74.050781 5.390625 74.523438 4.929688 75.105469 4.929688 Z M 80.109375 12.847656 C 80.578125 12.847656 80.921875 12.6875 81.144531 12.359375 C 81.367188 12.035156 81.476562 11.542969 81.476562 10.878906 C 81.476562 10.21875 81.367188 9.722656 81.144531 9.402344 C 80.921875 9.078125 80.578125 8.917969 80.109375 8.917969 C 79.628906 8.917969 79.273438 9.078125 79.050781 9.402344 C 78.828125 9.722656 78.714844 10.21875 78.714844 10.878906 C 78.714844 11.542969 78.828125 12.035156 79.050781 12.359375 C 79.273438 12.6875 79.628906 12.847656 80.109375 12.847656 Z M 80.109375 7.433594 C 80.625 7.433594 81.097656 7.511719 81.523438 7.671875 C 81.945312 7.832031 82.3125 8.058594 82.617188 8.355469 C 82.921875 8.652344 83.15625 9.011719 83.328125 9.4375 C 83.496094 9.859375 83.578125 10.335938 83.578125 10.867188 C 83.578125 11.398438 83.496094 11.882812 83.328125 12.308594 C 83.160156 12.738281 82.921875 13.101562 82.617188 13.398438 C 82.3125 13.699219 81.945312 13.929688 81.523438 14.089844 C 81.097656 14.25 80.625 14.332031 80.109375 14.332031 C 79.585938 14.332031 79.113281 14.25 78.683594 14.089844 C 78.257812 13.929688 77.890625 13.699219 77.582031 13.398438 C 77.273438 13.101562 77.035156 12.738281 76.863281 12.308594 C 76.695312 11.882812 76.613281 11.398438 76.613281 10.867188 C 76.613281 10.335938 76.695312 9.859375 76.863281 9.4375 C 77.035156 9.011719 77.273438 8.652344 77.582031 8.355469 C 77.890625 8.058594 78.257812 7.832031 78.683594 7.671875 C 79.113281 7.511719 79.585938 7.433594 80.109375 7.433594 Z M 89.808594 13.351562 C 89.644531 13.511719 89.476562 13.648438 89.304688 13.761719 C 89.070312 13.910156 88.832031 14.027344 88.589844 14.109375 C 88.347656 14.191406 88.101562 14.25 87.855469 14.285156 C 87.609375 14.316406 87.371094 14.332031 87.140625 14.332031 C 86.722656 14.332031 86.324219 14.253906 85.945312 14.101562 C 85.566406 13.945312 85.234375 13.71875 84.949219 13.425781 C 84.660156 13.128906 84.433594 12.769531 84.265625 12.339844 C 84.09375 11.90625 84.011719 11.417969 84.011719 10.867188 C 84.011719 10.386719 84.085938 9.933594 84.230469 9.515625 C 84.378906 9.09375 84.59375 8.730469 84.882812 8.425781 C 85.167969 8.117188 85.523438 7.875 85.945312 7.699219 C 86.367188 7.523438 86.859375 7.433594 87.414062 7.433594 C 87.949219 7.433594 88.417969 7.515625 88.820312 7.6875 C 89.183594 7.835938 89.515625 8.050781 89.816406 8.328125 C 89.796875 8.480469 89.742188 8.625 89.660156 8.75 C 89.476562 9.023438 89.164062 9.207031 88.804688 9.207031 C 88.636719 9.207031 88.480469 9.167969 88.339844 9.09375 C 88.253906 9.050781 88.160156 9.011719 88.054688 8.976562 C 87.917969 8.929688 87.75 8.90625 87.546875 8.90625 C 87.296875 8.90625 87.082031 8.949219 86.898438 9.039062 C 86.71875 9.128906 86.566406 9.261719 86.449219 9.425781 C 86.332031 9.59375 86.242188 9.800781 86.1875 10.042969 C 86.128906 10.285156 86.101562 10.5625 86.101562 10.867188 C 86.101562 11.507812 86.226562 12 86.480469 12.34375 C 86.730469 12.6875 87.078125 12.859375 87.519531 12.859375 C 87.757812 12.859375 87.945312 12.832031 88.082031 12.773438 C 88.183594 12.730469 88.261719 12.691406 88.339844 12.640625 C 88.476562 12.574219 88.644531 12.535156 88.808594 12.535156 C 89.304688 12.535156 89.71875 12.886719 89.808594 13.351562 Z M 94.503906 10.296875 C 94.375 10.457031 94.363281 10.675781 94.46875 10.851562 L 96.609375 14.3125 L 94.773438 14.3125 C 94.453125 14.3125 94.152344 14.148438 93.988281 13.878906 L 92.703125 11.804688 C 92.585938 11.613281 92.285156 11.695312 92.285156 11.917969 L 92.285156 14.332031 L 90.25 14.332031 L 90.25 5.890625 C 90.25 5.363281 90.683594 4.9375 91.21875 4.9375 L 92.285156 4.9375 L 92.285156 9.476562 C 92.285156 9.6875 92.558594 9.777344 92.6875 9.609375 L 94.085938 7.78125 C 94.261719 7.5625 94.527344 7.433594 94.808594 7.433594 L 96.765625 7.433594 Z M 96.570312 13.566406 C 96.597656 13.03125 97.046875 12.609375 97.597656 12.609375 C 97.78125 12.609375 97.953125 12.652344 98.101562 12.734375 C 98.132812 12.753906 98.167969 12.773438 98.199219 12.789062 C 98.3125 12.851562 98.441406 12.90625 98.589844 12.960938 C 98.738281 13.011719 98.925781 13.039062 99.152344 13.039062 C 99.3125 13.039062 99.449219 13.023438 99.558594 12.988281 C 99.671875 12.957031 99.757812 12.914062 99.828125 12.855469 C 99.894531 12.796875 99.941406 12.734375 99.972656 12.667969 C 100.003906 12.597656 100.019531 12.523438 100.019531 12.449219 C 100.019531 12.316406 99.972656 12.203125 99.878906 12.117188 C 99.785156 12.03125 99.664062 11.953125 99.511719 11.890625 C 99.363281 11.828125 99.191406 11.769531 98.996094 11.714844 C 98.804688 11.660156 98.609375 11.597656 98.40625 11.527344 C 98.207031 11.457031 98.011719 11.375 97.816406 11.277344 C 97.625 11.179688 97.453125 11.054688 97.300781 10.90625 C 97.152344 10.753906 97.03125 10.570312 96.9375 10.351562 C 96.84375 10.132812 96.796875 9.871094 96.796875 9.5625 C 96.796875 9.273438 96.851562 9 96.964844 8.738281 C 97.078125 8.480469 97.25 8.253906 97.476562 8.058594 C 97.703125 7.859375 97.984375 7.703125 98.328125 7.589844 C 98.667969 7.472656 99.070312 7.417969 99.527344 7.417969 C 99.773438 7.417969 100.015625 7.4375 100.25 7.480469 C 100.484375 7.523438 100.703125 7.585938 100.90625 7.664062 C 101.109375 7.742188 101.296875 7.835938 101.464844 7.941406 C 101.632812 8.046875 101.78125 8.164062 101.910156 8.292969 C 101.828125 8.773438 101.402344 9.140625 100.886719 9.140625 C 100.742188 9.140625 100.605469 9.109375 100.480469 9.058594 C 100.464844 9.050781 100.453125 9.042969 100.4375 9.039062 C 100.324219 8.988281 100.195312 8.945312 100.054688 8.902344 C 99.910156 8.863281 99.75 8.839844 99.566406 8.839844 C 99.304688 8.839844 99.105469 8.890625 98.964844 8.988281 C 98.824219 9.085938 98.753906 9.222656 98.753906 9.398438 C 98.753906 9.523438 98.800781 9.628906 98.890625 9.710938 C 98.980469 9.792969 99.101562 9.867188 99.253906 9.929688 C 99.40625 9.992188 99.578125 10.054688 99.765625 10.109375 C 99.957031 10.167969 100.152344 10.230469 100.351562 10.300781 C 100.550781 10.371094 100.746094 10.453125 100.9375 10.546875 C 101.128906 10.636719 101.300781 10.753906 101.453125 10.890625 C 101.601562 11.027344 101.722656 11.195312 101.8125 11.390625 C 101.90625 11.585938 101.949219 11.824219 101.949219 12.097656 C 101.949219 12.433594 101.886719 12.742188 101.765625 13.027344 C 101.640625 13.308594 101.453125 13.554688 101.207031 13.757812 C 100.960938 13.964844 100.65625 14.121094 100.296875 14.234375 C 99.933594 14.347656 99.519531 14.40625 99.046875 14.40625 C 98.8125 14.40625 98.574219 14.382812 98.339844 14.339844 C 98.105469 14.296875 97.878906 14.238281 97.65625 14.164062 C 97.4375 14.089844 97.234375 14 97.046875 13.898438 C 96.863281 13.796875 96.703125 13.6875 96.570312 13.566406 Z M 96.570312 13.566406 "/>
</clipPath>
</defs>
<g id="surface1">
<g clip-path="url(#clip1)" clip-rule="nonzero">
<g clip-path="url(#clip2)" clip-rule="nonzero">
<path style=" stroke:none;fill-rule:nonzero;fill:rgb(91.372549%,0%,29.803922%);fill-opacity:1;" d="M 26.605469 1.804688 L 105.0625 1.804688 L 105.0625 20.734375 L 26.605469 20.734375 Z M 26.605469 1.804688 "/>
</g>
</g>
<path style=" stroke:none;fill-rule:evenodd;fill:rgb(91.372549%,0%,29.803922%);fill-opacity:1;" d="M 15.402344 10.308594 C 15.035156 9.992188 14.558594 9.78125 13.976562 9.671875 C 14.433594 9.566406 14.8125 9.355469 15.125 9.046875 C 15.433594 8.734375 15.585938 8.324219 15.585938 7.816406 C 15.585938 7.039062 15.261719 6.476562 14.609375 6.132812 C 13.957031 5.785156 13.015625 5.613281 11.78125 5.613281 L 8.203125 5.617188 L 8.203125 5.988281 C 8.203125 6.582031 8.691406 7.058594 9.296875 7.058594 L 9.296875 7.0625 L 10.753906 7.0625 L 9.296875 7.460938 L 9.296875 12.800781 C 8.691406 12.800781 8.203125 13.28125 8.203125 13.875 L 8.203125 14.242188 L 12.125 14.242188 C 13.332031 14.242188 14.273438 14.054688 14.945312 13.675781 C 15.617188 13.296875 15.953125 12.648438 15.953125 11.726562 C 15.953125 11.097656 15.769531 10.625 15.402344 10.308594 Z M 11.375 7.058594 L 11.984375 7.058594 C 12.5 7.058594 12.875 7.132812 13.113281 7.277344 C 13.347656 7.421875 13.46875 7.667969 13.46875 8.019531 C 13.46875 8.714844 13.027344 9.0625 12.148438 9.0625 L 11.375 9.0625 Z M 13.386719 12.519531 C 13.101562 12.679688 12.683594 12.761719 12.136719 12.761719 L 11.375 12.761719 L 11.375 10.421875 L 12.289062 10.421875 C 13.300781 10.421875 13.808594 10.820312 13.808594 11.617188 C 13.808594 12.054688 13.667969 12.355469 13.386719 12.519531 Z M 12.933594 0.136719 C 12.503906 -0.0429688 12.019531 -0.046875 11.589844 0.132812 L 1.140625 4.457031 C 0.511719 4.71875 0 5.328125 0 6 L 0 13.859375 C 0 14.53125 0.511719 15.140625 1.140625 15.402344 L 11.449219 19.722656 C 11.878906 19.902344 12.390625 19.902344 12.824219 19.722656 L 23.09375 15.402344 C 23.722656 15.140625 24.132812 14.53125 24.132812 13.859375 L 24.132812 5.996094 C 24.132812 5.324219 23.738281 4.71875 23.109375 4.453125 Z M 12.933594 0.136719 "/>
</g>
</svg>
